#!OML:ASF E:/inclinewalkrobotboard/Project1/Captureday1/Session1/subject1.ASF
:FULLY-SPECIFIED
:DEGREES
26
root 0 0 0 0.5400444053014914 11.11691016039454 -1.2460766326985162
lowerback 9.753704499431308 0.2902021679642382 -4.344586593261356
upperback 3.8433124378536774 -0.033401704740210314 -0.780318133420578
thorax -1.4267821598009724 -0.013922754649734248 1.5941085421973578
lowerneck -0.9948068070519791 -4.477905488411597 -8.822709167446238
upperneck 22.438826796740287 -6.704979682192861 9.285659807379336
head 7.773564782918112 -3.308320007024018 4.032238421324045
rclavicle -5.1003256987772165E-15 1.933356520478503E-15
rhumerus 49.770580450080566 -28.19313247945988 -41.78892907982027
rradius 67.86091763175713
rwrist 10.835655718903032
rhand -38.60208830162776 -3.3737857292372504
rfingers 7.1250199999999815
rthumb -11.64679788021143 -33.37443909123386
lclavicle 4.655928872014446E-16 -1.1507262524240033E-16
lhumerus 23.44127741742842 7.349358160400254 50.07947760106771
lradius 66.50718435695464
lwrist 19.47871189398849
lhand -28.626821374136952 30.509239015841068
lfingers 7.125919109265147
lthumb -2.104825402708938 55.44724490239338
rfemur -39.6662910885325 5.227637878714925 4.17644012920103
rtibia 58.51050404339799
rfoot -3.3803354908437306 -9.799768496015506
rtoes -6.007115342428722
lfemur -2.885102231808567 -5.680832644181642 -15.353243984849415
ltibia 22.815406335778842
lfoot -17.96440069333091 15.61265623075813
ltoes -0.5908788674269685
27
root 0 0 0 0.3897710236537515 9.066041182755466 -0.8734795873395094
lowerback 10.093930614599392 0.36575284324946816 -4.5167201126943946
upperback 4.141476580601251 0.029672688552082382 -0.9326381584273666
thorax -1.2985337253134954 0.012636782777055933 1.5248860171618166
lowerneck -0.1664032236935462 -4.5105167977628415 -9.02917629462945
upperneck 21.60204959005877 -6.782805784563824 9.796450256278108
head 7.400019143867857 -3.3474104259824706 4.246928488600494
rclavicle -4.477385085608468E-15 1.8959430284576216E-15
rhumerus 48.452420597203464 -24.31958621631055 -43.74849355949323
rradius 73.6034657982249
rwrist 6.845516090106605
rhand -40.04002795930079 -5.85905795333879
rfingers 7.125019999999974
rthumb -13.066905613581186 -35.77810039860882
lclavicle 1.2055410833445159E-15 -3.569770936784995E-16
lhumerus 25.051936566204443 6.454311396892344 49.6882827692094
lradius 70.40959007513074
lwrist 22.6127723338641
lhand -29.57266769868454 31.373137540273003
lfingers 7.12565124890931
lthumb -3.0108140568247315 55.124968974808745
rfemur -39.24245724617303 5.800347894497476 4.166186105077298
rtibia 57.54736113056338
rfoot -3.7120504339099316 -9.648828559125809
rtoes -6.276341742894576
lfemur -3.614665055445032 -6.138930860792697 -14.986371417169881
ltibia 22.714585790108007
lfoot -16.744433995120914 15.039967535401413
ltoes -0.4950189899695152
28
root 0 0 0 0.7262856673161924 9.289872912984958 -0.9880598449933262
lowerback 10.270582171683339 0.5468820285077964 -4.4209070863199145
upperback 4.242921795021389 0.2650929782717947 -1.0388658827246287
thorax -1.2916779316564408 0.12767497412546439 1.3350520291596797
lowerneck 0.0019463697493815602 -4.506634437961382 -8.982405085093916
upperneck 21.389295876645868 -6.770797362203013 9.82090812985313
head 7.321882138483499 -3.333608025931127 4.256411719626123
rclavicle -4.241341651719546E-15 1.8229904299561567E-15
rhumerus 46.52688289132626 -22.18333726154545 -45.131538336341315
rradius 74.0955739953369
rwrist 6.231330602671282
rhand -39.68037835112811 -6.171438548499166
rfingers 7.125019999999975
rthumb -12.721663567083334 -36.06056685362535
lclavicle 1.374351655305525E-15 -4.3624008020323064E-16
lhumerus 24.580501657862126 5.284677351515409 50.43265863990257
lradius 71.75912705529807
lwrist 23.255486486093375
lhand -29.398114649731113 31.63579206298867
lfingers 7.125338160132258
lthumb -2.8387369462301777 55.08328969594412
rfemur -38.754893812282916 6.245120721766677 4.255025399701813
rtibia 56.71028983540205
rfoot -3.9666090816945463 -9.54478301447982
rtoes -6.402418011789066
lfemur -4.723614500981192 -6.253401644216583 -14.6127373626863
ltibia 23.475989736411766
lfoot -15.68015438935421 14.279916232318463
ltoes -0.6674347886997474
29
root 0 0 0 1.1851159871963506 10.28143118272212 -1.2438020656642044
lowerback 10.320137214953663 0.7679772993394487 -4.2411597452915295
upperback 4.268997562477499 0.5659496735861135 -1.1446004315483034
thorax -1.29517651367471 0.2759816577903782 1.0934285473085839
lowerneck -0.012953830640009656 -4.442528193254158 -8.843007812903615
upperneck 21.480533913283796 -6.666853207571729 9.642200718012337
head 7.363045327450321 -3.2729832212693735 4.187680706909424
rclavicle -4.061485670123614E-15 1.7607225113364983E-15
rhumerus 44.960608626281676 -20.380127065770203 -46.26852102839322
rradius 74.46048916349375
rwrist 5.734414499546159
rhand -39.36216718007242 -6.436287176006955
rfingers 7.125019999999976
rthumb -12.412347263438503 -36.303368068544884
lclavicle 1.3813200642554941E-15 -4.495368858230458E-16
lhumerus 24.039624652222987 4.159938643101853 51.18861231555056
lradius 72.86253924700998
lwrist 23.70387291822435
lhand -29.14978774954936 31.852323348582527
lfingers 7.125421253103577
lthumb -2.594124893330365 55.070284206722874
rfemur -38.24040820936608 6.639691874763191 4.381686958754468
rtibia 55.93182255208445
rfoot -4.177648435767566 -9.445427766201314
rtoes -6.471719527078983
lfemur -5.940424745663991 -6.269336850935697 -14.23785878877856
ltibia 24.49520886603566
lfoot -14.671084085476442 13.456263801244688
ltoes -0.9359867644363167
30
root 0 0 0 1.6982920887437856 11.741963626094936 -1.5463821481011553
lowerback 10.246910740823665 1.0121162642364085 -3.994386299711344
upperback 4.235750347604499 0.9076894663994745 -1.2493514908519456
thorax -1.2926776144125887 0.444910151853189 0.8121806543136967
lowerneck -0.1585443623149141 -4.281318533742714 -8.606281787949083
upperneck 21.849640046162328 -6.421813738400131 9.250240309157219
head 7.501617800202869 -3.143129958345225 4.041669668697933
rclavicle -3.895404550018806E-15 1.7067708445784053E-15
rhumerus 43.745063213288276 -18.74968749623503 -47.23231008503535
rradius 75.10037867347937
rwrist 5.094600087345957
rhand -39.21190846907139 -6.813687277708883
rfingers 7.125019999999976
rthumb -12.264284576298165 -36.661732689576745
lclavicle 1.3233763194609277E-15 -4.31777177561917E-16
lhumerus 23.626539334884537 3.1185616725659244 51.84391400246609
lradius 73.96192817436632
lwrist 24.194070664009082
lhand -28.942796756811596 32.07684292851082
lfingers 7.1257489349889225
lthumb -2.388368452904631 55.05582713582672
rfemur -37.66380364743016 6.992037940255974 4.563775670708969
rtibia 55.18297842157236
rfoot -4.384712413645367 -9.360146648833627
rtoes -6.494911931575443
lfemur -7.078164999437218 -6.2762754760861394 -13.887613619261723
ltibia 25.465477441136713
lfoot -13.757488340785866 12.687648965153997
ltoes -1.2144296260456517
31
root 0 0 0 2.2125259627202634 13.319244720700375 -1.8105065741290987
lowerback 10.11432007710128 1.2546273376476027 -3.694564335106101
upperback 4.167275651123796 1.2543862337850147 -1.338151572973164
thorax -1.2923323678435668 0.6162143463594076 0.5170180400309498
lowerneck -0.411130806332634 -4.023051912635112 -8.273531575381616
upperneck 22.389630703367047 -6.0350205364721905 8.667976051267697
head 7.697131640758295 -2.9442885760799506 3.827286417213936
rclavicle -3.720385056661513E-15 1.6524694773884096E-15
rhumerus 42.62668697970898 -17.11809452146543 -48.16751586216657
rradius 75.92638551493164
rwrist 4.341189703768414
rhand -39.141999058068954 -7.267962659785139
rfingers 7.125019999999976
rthumb -12.193516703168124 -37.097591436170056
lclavicle 1.2684579250437866E-15 -4.142650388848639E-16
lhumerus 23.265195341897464 2.121296246018808 52.4543397218023
lradius 75.0532814142488
lwrist 24.696961366420787
lhand -28.75790640095026 32.301293123266966
lfingers 7.126094221623806
lthumb -2.2037290618711634 55.04328063303326
rfemur -36.898066187186224 7.376192172986676 4.8410991772367815
rtibia 54.289659396534674
rfoot -4.68349993072448 -9.304399001942333
rtoes -6.500618764549124
lfemur -8.087327602964228 -6.3291967292458855 -13.559311228026319
ltibia 26.2551518024257
lfoot -12.902806440364762 11.999411486878499
ltoes -1.4588874219765966
32
root 0 0 0 2.8614389738542125 15.181612669049816 -2.0165781081848273
lowerback 9.993800541433162 1.5272759457205094 -3.2202095337138097
upperback 4.050318160777377 1.6565597739746942 -1.384291052788353
thorax -1.346123876724978 0.814737255053082 0.16002420784299357
lowerneck -0.9587093117692871 -3.5729985476596173 -7.680501215113535
upperneck 23.16754911233567 -5.355513961698961 7.643130005767106
head 7.986085439995929 -2.5994994954524033 3.4460098040238263
rclavicle -3.40800260373859E-15 1.5570346411953972E-15
rhumerus 40.553634854710346 -14.227595353624544 -49.85715126836691
rradius 77.28970769612438
rwrist 3.0632269565742973
rhand -38.97211148449921 -8.023074708621124
rfingers 7.125019999999976
rthumb -12.02354996447855 -37.821548453760116
lclavicle 1.2416508106425763E-15 -4.221075316023628E-16
lhumerus 22.366868416077782 0.5978144355299584 53.55964014797064
lradius 76.30931284190073
lwrist 25.068183364306556
lhand -28.328843146885763 32.5368722838917
lfingers 7.126192144769432
lthumb -1.7822742522300405 55.06860606917183
rfemur -34.99849824798823 8.256923521916567 5.553031867794013
rtibia 52.12304976124908
rfoot -5.561146494752398 -9.301147830056351
rtoes -6.547450062024822
lfemur -9.582960775146136 -6.499867278124648 -13.043968132618994
ltibia 27.295741433345988
lfoot -11.518711350320286 10.941753244856049
ltoes -1.8003649832750916
